# xmcd
#
# Track frame offsets:
#	150
#	12900
#	26272
#	41960
#	64837
#	77677
#	93190
#	106775
#	123952
#	140302
#	155727
#	170982
#	186740
#	204765
#	221350
#
# Disc length: 3139
#
# Revision: 1
# Processed by: cddbd v1.5.1PL0 Copyright (c) Steve Scherf et al.
# Submitted via: EasyCDDAExtractor 4.6.0.1
# Normalized: r0:TDELIM( - )
#
DISCID=ca0c410f
DTITLE=Variuos - More Country Fun
DYEAR=2001
DGENRE=Country
TTITLE0=Trick Pony - Pour Me
TTITLE1=Tracy Lawrence - Lessons Learned
TTITLE2=Dewight Yoakam - I Want You To Want Me
TTITLE3=Clay Walker - The Chain of Love
TTITLE4=John Michael Montgomery - Be My Baby Tonight
TTITLE5=The Wilkinsons - Jimmys Got a Girlfriend
TTITLE6=Travis Tritt - Trouble
TTITLE7=Neil McCoy - No Doubt About It
TTITLE8=Lila McCann - Come a Little Closer
TTITLE9=George Jones - Choices
TTITLE10=Chad Brock - Yes
TTITLE11=South 65 - The Most Beautiful Girl
TTITLE12=Chalee Tennison - Go Back
TTITLE13=Randy Travis - Dont ever Sell your Saddle
TTITLE14=Bryan White - Look at Me Now
EXTD=
EXTT0=
EXTT1=
EXTT2=
EXTT3=
EXTT4=
EXTT5=
EXTT6=
EXTT7=
EXTT8=
EXTT9=
EXTT10=
EXTT11=
EXTT12=
EXTT13=
EXTT14=
PLAYORDER=
